<?xml version="1.0" encoding="UTF-8"?><svg id="Layer_1" xmlns="http://www.w3.org/2000/svg" viewBox="0 0 1065.79 1065.789"><defs><style>.cls-1{fill:#fff;}</style></defs><path class="cls-1" d="m1064.98,503.931l-.172-.003v-1.662h-313.872l-222.066-417.94-205.07,418.901c-2.257-.568-4.579-.962-7.013-.962H53.913C69.776,251.789,278.486,52.834,532.896,52.834c152.606,0,288.706,71.664,376.7,183.011l40.339-34.498C852.304,78.704,701.834,0,532.896,0,238.585,0,0,238.585,0,532.894c0,8.978.239,17.9.677,26.768l33.642.146c.013,0,.021.003.034.003h.761l18.523.08c-.002-.026,0-.054-.002-.08h242.464l-135.182,276.136c-.013-.017-.028-.032-.041-.049l-7.982,16.439-15.539,31.742.103.051-1.849,3.807c97.582,109.116,239.381,177.852,397.286,177.852,294.308,0,532.894-238.585,532.894-532.895,0-9.721-.297-19.371-.81-28.964Zm-532.083,509.025c-128.44,0-245.125-50.833-331.354-133.278L530.899,206.882l156.944,295.383h-157.452v57.546h481.767c-14.015,252.228-223.593,453.144-479.263,453.144Z"/></svg>