<?xml version="1.0" encoding="utf-8"?>
<!-- Generator: Adobe Illustrator 27.2.0, SVG Export Plug-In . SVG Version: 6.00 Build 0)  -->
<!DOCTYPE svg PUBLIC "-//W3C//DTD SVG 1.1//EN" "http://www.w3.org/Graphics/SVG/1.1/DTD/svg11.dtd" [
	<!ENTITY ns_extend "http://ns.adobe.com/Extensibility/1.0/">
	<!ENTITY ns_ai "http://ns.adobe.com/AdobeIllustrator/10.0/">
	<!ENTITY ns_graphs "http://ns.adobe.com/Graphs/1.0/">
	<!ENTITY ns_vars "http://ns.adobe.com/Variables/1.0/">
	<!ENTITY ns_imrep "http://ns.adobe.com/ImageReplacement/1.0/">
	<!ENTITY ns_sfw "http://ns.adobe.com/SaveForWeb/1.0/">
	<!ENTITY ns_custom "http://ns.adobe.com/GenericCustomNamespace/1.0/">
	<!ENTITY ns_adobe_xpath "http://ns.adobe.com/XPath/1.0/">
]>
<svg version="1.1" id="Layer_1" xmlns:x="&ns_extend;" xmlns:i="&ns_ai;" xmlns:graph="&ns_graphs;"
	 xmlns="http://www.w3.org/2000/svg" xmlns:xlink="http://www.w3.org/1999/xlink" x="0px" y="0px" viewBox="0 0 481.9 99.2"
	 style="enable-background:new 0 0 481.9 99.2;" xml:space="preserve">
<style type="text/css">
	.st0{fill:#FFFFFF;}
</style>
<metadata>
	<sfw  xmlns="&ns_sfw;">
		<slices></slices>
		<sliceSourceBounds  bottomLeftOrigin="true" height="90" width="467" x="64.2" y="-466"></sliceSourceBounds>
	</sfw>
</metadata>
<g>
	<g>
		<g>
			<path class="st0" d="M298.1,55.8c0-0.6,0.4-1,1-1c0.6,0,0.9,0.4,1,0.8c0.2,2.3,2.5,4.8,6.1,4.8c3.7,0,6.1-2.7,6.1-5.5
				c0-3.9-3.2-5.3-5.4-5.9l-1.9-0.5c-2.3-0.6-6.6-2.2-6.6-7.4c0-4.2,3.3-7.3,7.9-7.3c4.6,0,7.9,3.1,7.9,6.6c0,0.6-0.4,1-1,1
				s-0.9-0.4-1-0.9c-0.2-2.3-2.2-4.8-5.8-4.8c-3.6,0-5.8,2.6-5.8,5.5c0,3.9,3.7,5.1,5.5,5.6l1.8,0.5c2.2,0.6,6.6,2.1,6.6,7.7
				c0,3.9-3.5,7.4-8.2,7.4C301.7,62.4,298.1,59.1,298.1,55.8z"/>
			<path class="st0" d="M321.5,35c0-0.6,0.4-1.1,1-1.1c0.6,0,1,0.5,1,1.1v26.2c0,0.6-0.4,1.1-1,1.1c-0.6,0-1-0.5-1-1.1V35z"/>
			<path class="st0" d="M351,34.4c0.3-0.3,0.5-0.4,0.9-0.4c0.6,0,1,0.5,1,1.1v15.4l13.5-16c0.3-0.3,0.5-0.4,0.9-0.4
				c0.6,0,1,0.5,1,1.1v26.2c0,0.6-0.5,1.1-1,1.1c-0.6,0-1.1-0.5-1.1-1.1V37.6l-13.3,15.8v7.8c0,0.6-0.4,1.1-1,1.1
				c-0.6,0-1-0.5-1-1.1V37.6l-20.4,24.3c-0.2,0.2-0.5,0.4-0.8,0.4c-0.6,0-1-0.5-1-1c0-0.2,0.1-0.4,0.3-0.7L351,34.4z"/>
			<path class="st0" d="M376,35.3c0-0.6,0.4-1,1-1h6c4.8,0,7.9,3.3,7.9,7.5c0,4.2-3.1,7.5-7.9,7.5h-1.7c-0.6,0-1-0.4-1-1
				c0-0.6,0.4-1,1-1h1.6c3.7,0,5.9-2.5,5.9-5.6c0-3.2-2.2-5.6-5.9-5.6H378v25.1c0,0.6-0.4,1.1-1,1.1c-0.6,0-1-0.5-1-1.1V35.3z"/>
			<path class="st0" d="M395.9,55.8c0-0.6,0.4-1,1-1c0.6,0,0.9,0.4,1,0.8c0.2,2.3,2.5,4.8,6.1,4.8c3.7,0,6.1-2.7,6.1-5.5
				c0-3.9-3.2-5.3-5.4-5.9l-1.9-0.5c-2.3-0.6-6.6-2.2-6.6-7.4c0-4.2,3.3-7.3,7.9-7.3c4.6,0,7.9,3.1,7.9,6.6c0,0.6-0.4,1-1,1
				s-0.9-0.4-1-0.9c-0.2-2.3-2.2-4.8-5.8-4.8c-3.6,0-5.8,2.6-5.8,5.5c0,3.9,3.7,5.1,5.5,5.6l1.8,0.5c2.2,0.6,6.6,2.1,6.6,7.7
				c0,3.9-3.5,7.4-8.2,7.4C399.4,62.4,395.9,59.1,395.9,55.8z"/>
			<path class="st0" d="M418.2,48.1c0-8,6.2-14.3,14-14.3c7.9,0,14.1,6.3,14.1,14.3c0,8-6.2,14.3-14.1,14.3
				C424.4,62.4,418.2,56.1,418.2,48.1z M444.1,48.1c0-6.9-5.2-12.3-11.9-12.3c-6.6,0-11.9,5.4-11.9,12.3c0,6.9,5.2,12.3,11.9,12.3
				C438.9,60.4,444.1,55,444.1,48.1z"/>
			<path class="st0" d="M453,35.1c0-0.6,0.4-1.1,1.1-1.1c0.4,0,0.6,0.2,0.8,0.4l16.2,19.3V35c0-0.6,0.4-1.1,1-1.1s1,0.5,1,1.1v26.2
				c0,0.6-0.4,1.1-1,1.1s-1-0.5-1-1.1v-4.3l-16-19.1v23.5c0,0.6-0.4,1.1-1,1.1c-0.6,0-1-0.5-1-1.1V35.1z"/>
		</g>
	</g>
	<g>
		<g>
			<path class="st0" d="M29.7,36.4c0.3-0.3,0.6-0.4,0.9-0.4c0.6,0,1,0.5,1,1.1v26.2c0,0.6-0.4,1.1-1,1.1c-0.6,0-1-0.5-1-1.1V56h-8.9
				c-0.6,0-1-0.4-1-1c0-0.5,0.4-1,1-1h8.9V39.6L9.2,63.9c-0.2,0.2-0.5,0.4-0.8,0.4c-0.6,0-1-0.5-1-1c0-0.2,0.1-0.4,0.3-0.7
				L29.7,36.4z"/>
			<path class="st0" d="M39.3,37c0-0.6,0.4-1.1,1-1.1c0.6,0,1,0.5,1,1.1V62h10.8c0.6,0,1,0.4,1,1c0,0.6-0.4,1-1,1H40.4
				c-0.6,0-1-0.5-1-1.1V37z"/>
			<path class="st0" d="M58.8,38.1h-7.1c-0.5,0-1-0.4-1-1c0-0.6,0.4-1,1-1H68c0.5,0,1,0.4,1,1c0,0.5-0.4,1-1,1h-7.1v25.1
				c0,0.6-0.4,1.1-1,1.1s-1-0.5-1-1.1V38.1z"/>
			<path class="st0" d="M70.8,50.1c0-8,6.2-14.3,14-14.3c4.6,0,8.6,2.2,11,5.4c0.2,0.2,0.3,0.5,0.3,0.8c0,0.6-0.5,1-1.1,1
				c-0.3,0-0.6-0.2-0.8-0.4c-2.1-2.9-5.5-4.8-9.4-4.8c-6.6,0-11.9,5.4-11.9,12.3c0,6.9,5.2,12.3,11.9,12.3c6.3,0,11-4.8,11.7-10.6
				h-9.1c-0.6,0-1-0.4-1-1c0-0.6,0.4-1,1-1h10.4c0.6,0,1,0.4,1,1c-0.2,7-6.1,13.5-14,13.5C77,64.4,70.8,58.1,70.8,50.1z"/>
			<path class="st0" d="M104.4,50.1c0-8,6.2-14.3,14-14.3c7.9,0,14.1,6.3,14.1,14.3c0,8-6.2,14.3-14.1,14.3
				C110.6,64.4,104.4,58.1,104.4,50.1z M130.4,50.1c0-6.9-5.2-12.3-11.9-12.3c-6.6,0-11.9,5.4-11.9,12.3c0,6.9,5.2,12.3,11.9,12.3
				C125.1,62.4,130.4,57,130.4,50.1z"/>
			<path class="st0" d="M142.2,38.1h-7.1c-0.5,0-1-0.4-1-1c0-0.6,0.4-1,1-1h16.3c0.5,0,1,0.4,1,1c0,0.5-0.4,1-1,1h-7.1v25.1
				c0,0.6-0.4,1.1-1,1.1c-0.6,0-1-0.5-1-1.1V38.1z"/>
			<path class="st0" d="M163.9,38.1h-7.1c-0.5,0-1-0.4-1-1c0-0.6,0.4-1,1-1h16.3c0.5,0,1,0.4,1,1c0,0.5-0.4,1-1,1H166v25.1
				c0,0.6-0.4,1.1-1,1.1c-0.6,0-1-0.5-1-1.1V38.1z"/>
		</g>
	</g>
	<g>
		<g>
			<path class="st0" d="M404.5,78.6c0-3.6,2.7-6.4,6.3-6.4c1.8,0,3.4,0.8,4.5,1.9v-0.9c0-0.5,0.4-1,1-1c0.6,0,1,0.4,1,1v10
				c0,3.6-2.9,6.4-6.5,6.4c-2,0-3.6-0.8-4.7-2c-0.2-0.2-0.3-0.5-0.3-0.7c0-0.6,0.4-0.9,0.9-0.9c0.4,0,0.6,0.2,0.8,0.4
				c0.9,0.9,1.9,1.4,3.2,1.4c2.6,0,4.5-2.1,4.5-4.6v-0.1c-1.1,1.2-2.7,1.9-4.5,1.9C407.2,85,404.5,82.2,404.5,78.6z M415.3,78.6
				c0-2.6-1.9-4.6-4.4-4.6c-2.5,0-4.4,2-4.4,4.6c0,2.6,2,4.6,4.4,4.6C413.4,83.3,415.3,81.2,415.3,78.6z"/>
			<path class="st0" d="M421.8,77.4c0-3.1,2-5.2,5-5.2c0.5,0,0.9,0.4,0.9,0.9c0,0.5-0.4,0.9-0.9,0.9c-1.8,0-3,1.2-3,3.4V84
				c0,0.6-0.4,1-1,1c-0.6,0-1-0.4-1-1V77.4z"/>
			<path class="st0" d="M429.9,78.6c0-3.6,2.8-6.4,6.4-6.4c3.6,0,6.4,2.8,6.4,6.4c0,3.6-2.7,6.4-6.4,6.4
				C432.6,85,429.9,82.2,429.9,78.6z M440.7,78.6c0-2.6-1.9-4.6-4.4-4.6s-4.4,2.1-4.4,4.6c0,2.5,1.9,4.6,4.4,4.6
				S440.7,81.2,440.7,78.6z"/>
			<path class="st0" d="M446.6,73.2c0-0.5,0.4-1,1-1c0.5,0,1,0.4,1,1v6.3c0,2.5,1.5,3.8,3.4,3.8c1.9,0,3.4-1.3,3.4-3.8v-6.3
				c0-0.5,0.4-1,1-1c0.5,0,1,0.4,1,1v6.2c0,3.5-2.3,5.6-5.3,5.6c-3,0-5.3-2.1-5.3-5.6V73.2z"/>
			<path class="st0" d="M463.6,83.1v5.5c0,0.6-0.4,1-1,1c-0.6,0-1-0.4-1-1V73.2c0-0.5,0.4-1,1-1c0.5,0,1,0.4,1,1v0.9
				c1.1-1.2,2.7-1.9,4.5-1.9c3.6,0,6.3,2.8,6.3,6.4c0,3.6-2.7,6.4-6.3,6.4C466.3,85,464.7,84.3,463.6,83.1z M472.5,78.6
				c0-2.6-2-4.6-4.4-4.6c-2.4,0-4.3,1.9-4.4,4.4v0.4c0.1,2.5,2,4.4,4.4,4.4C470.5,83.3,472.5,81.2,472.5,78.6z"/>
		</g>
	</g>
	<path class="st0" d="M280,47.2L280,47.2l0-0.1h-17.1h-9.4l-18.8-35.3l-17.3,35.4c-0.2,0-0.4-0.1-0.6-0.1h-22.2
		c1.3-21.2,19-38,40.5-38c12.9,0,24.4,6.1,31.8,15.5l3.4-2.9c-8.2-10.4-21-17-35.2-17c-24.9,0-45,20.2-45,45c0,0.8,0,1.5,0.1,2.3
		l2.8,0c0,0,0,0,0,0h0.1l1.6,0c0,0,0,0,0,0h20.5l-11.4,23.3c0,0,0,0,0,0l-0.7,1.4l-1.3,2.7l0,0l-0.2,0.3c8.2,9.2,20.2,15,33.6,15
		c24.9,0,45-20.2,45-45C280.1,48.8,280.1,48,280,47.2z M235.1,90.2c-10.8,0-20.7-4.3-28-11.3l27.8-56.8L248.2,47h-13.3v4.9h16.4
		h11.6h12.7C274.4,73.2,256.7,90.2,235.1,90.2z"/>
</g>
</svg>
