<?xml version="1.0" encoding="UTF-8"?><svg id="Layer_1" xmlns="http://www.w3.org/2000/svg" viewBox="0 0 1065.789 1065.788"><defs><style>.cls-1{fill:#fff;}</style></defs><path class="cls-1" d="m532.896,10c40.679,0,81.19,4.692,120.407,13.946,38.111,8.993,75.264,22.352,110.427,39.704,34.527,17.038,67.273,37.99,97.326,62.274,27.363,22.11,52.548,47.023,74.974,74.154l-25.118,21.481c-20.816-25.229-44.168-48.42-69.53-69.044-28.229-22.955-59.001-42.768-91.46-58.888-33.069-16.424-68.01-29.069-103.85-37.586-36.882-8.764-74.961-13.208-113.178-13.208-125.233,0-244.491,47.415-335.807,133.511-44.404,41.866-80.215,90.89-106.44,145.712-27.031,56.505-42.748,116.924-46.716,179.577l-.673,10.632h273.527c1.333,0,2.785.209,4.572.659l7.859,1.978,3.563-7.279,196.453-401.299,212.871,400.633,2.82,5.308h309.882v1.503l.613.01c.248,6.566.369,12.881.369,19.116,0,70.595-13.824,139.073-41.087,203.531-26.336,62.265-64.04,118.186-112.065,166.211s-103.946,85.729-166.211,112.065c-64.459,27.264-132.936,41.088-203.531,41.088-38.048,0-76.006-4.109-112.82-12.211-35.822-7.884-70.908-19.623-104.284-34.89-32.768-14.989-64.125-33.483-93.2-54.97-27.048-19.989-52.265-42.672-75.035-67.488l3.253-6.698-.075-.037,11.156-22.79.927-1.91.004.006,7.077-14.456,135.182-276.136,7.048-14.397H42.783l.003.033-7.671-.033h-.028l-.724-.003-24.085-.104c-.184-5.696-.277-11.321-.277-16.81,0-70.595,13.824-139.072,41.088-203.531,26.336-62.265,64.04-118.186,112.065-166.211,48.025-48.025,103.947-85.729,166.212-112.065,64.459-27.264,132.937-41.088,203.532-41.088m0,1012.956c125.901,0,245.632-47.85,337.138-134.735,44.494-42.247,80.267-91.682,106.326-146.931,26.876-56.981,42.279-117.852,45.784-180.924l.587-10.555h-482.339v-37.546h164.089l-7.806-14.692-156.944-295.383-9.196-17.307-8.617,17.602L192.561,875.281l-3.216,6.57,5.287,5.055c44.695,42.735,96.158,76.238,152.958,99.578,58.895,24.201,121.241,36.472,185.307,36.472m0-1022.956C238.586,0,0,238.585,0,532.894c0,8.978.239,17.9.677,26.768l33.642.146c.013,0,.022.003.034.003h.761l18.523.08c-.002-.026,0-.054-.002-.08h242.464l-135.182,276.136c-.013-.017-.028-.032-.041-.049l-7.982,16.439-15.539,31.742.103.05-1.849,3.807c97.582,109.116,239.381,177.852,397.286,177.852,294.308,0,532.894-238.585,532.894-532.895,0-9.721-.297-19.371-.811-28.964l-.172-.003v-1.662h-313.872l-222.066-417.94-205.07,418.901c-2.257-.568-4.579-.962-7.013-.962H53.913C69.776,251.789,278.486,52.834,532.896,52.834c152.606,0,288.706,71.664,376.7,183.011l40.339-34.498C852.304,78.704,701.834,0,532.896,0h0Zm0,1012.956c-128.44,0-245.125-50.833-331.354-133.278L530.899,206.882l156.944,295.383h-157.452v57.546h481.767c-14.015,252.228-223.593,453.144-479.263,453.144h.002Z"/></svg>